<svg id="svg" version="1.1" xmlns="http://www.w3.org/2000/svg" xmlns:xlink="http://www.w3.org/1999/xlink" width="400" height="400" viewBox="0, 0, 400,400"><g id="svgg"><path id="path0" d="M185.800 0.364 C 185.360 0.543,183.470 0.814,181.600 0.966 C 174.248 1.566,167.133 2.613,157.800 4.468 C 144.085 7.194,126.382 13.324,111.800 20.396 C 100.364 25.942,85.016 35.566,76.608 42.463 C 64.731 52.204,54.260 62.312,47.253 70.800 C 44.983 73.550,42.801 76.184,42.405 76.654 C 29.246 92.263,13.638 122.729,8.005 143.800 C 3.789 159.568,2.772 164.899,0.906 181.000 C 0.016 188.684,0.019 210.749,0.912 218.400 C 2.708 233.784,3.930 240.158,8.005 255.400 C 13.837 277.216,27.619 303.912,43.007 323.200 C 50.441 332.518,61.582 344.161,69.218 350.591 C 71.298 352.343,73.090 353.877,73.200 353.999 C 75.913 357.025,93.220 368.671,103.600 374.456 C 108.928 377.425,119.050 382.400,119.764 382.400 C 119.883 382.400,121.199 382.962,122.690 383.649 C 132.756 388.286,153.166 394.282,164.800 396.020 C 166.230 396.233,169.290 396.687,171.600 397.029 C 203.524 401.751,237.423 398.033,270.343 386.201 C 287.760 379.941,313.187 364.990,327.723 352.463 C 331.260 349.415,332.928 347.896,336.353 344.606 C 341.236 339.915,341.126 340.024,345.868 335.045 C 359.235 321.009,373.884 299.007,381.583 281.400 C 382.064 280.300,382.696 278.860,382.987 278.200 C 383.278 277.540,383.914 276.010,384.400 274.800 C 384.885 273.590,385.434 272.240,385.619 271.800 C 388.187 265.685,391.740 253.897,394.420 242.600 C 395.901 236.356,397.171 227.955,398.393 216.332 C 398.921 211.311,398.919 188.027,398.391 182.714 C 397.404 172.796,395.896 162.872,394.423 156.600 C 393.156 151.203,392.516 148.758,390.928 143.263 C 388.563 135.073,387.813 132.929,383.983 123.400 C 376.099 103.789,363.101 83.177,348.040 66.400 C 344.279 62.211,343.668 61.618,343.100 61.606 C 342.935 61.603,342.800 123.700,342.800 199.601 L 342.800 337.601 200.300 337.501 L 57.800 337.400 57.699 199.624 C 57.619 89.667,57.700 61.784,58.099 61.530 C 58.375 61.355,122.545 61.209,200.700 61.206 C 278.855 61.203,342.800 61.048,342.800 60.863 C 342.800 60.121,329.755 48.226,323.277 43.060 C 313.698 35.422,298.586 25.796,289.000 21.227 C 283.082 18.406,276.042 15.200,275.766 15.200 C 275.651 15.200,274.801 14.868,273.878 14.462 C 259.193 8.001,237.483 2.815,216.400 0.732 C 210.907 0.189,186.941 -0.099,185.800 0.364 M98.200 73.985 C 90.684 75.226,87.764 83.180,85.192 109.428 C 84.301 118.521,86.203 120.705,92.292 117.583 C 97.668 114.826,102.461 110.957,108.318 104.644 C 111.183 101.556,111.265 101.503,112.834 101.714 C 116.568 102.215,116.541 102.944,112.472 111.618 C 111.687 113.290,110.793 116.468,109.997 120.418 C 107.812 131.250,106.958 132.817,101.095 136.742 C 97.167 139.372,95.117 140.299,89.028 142.200 C 76.312 146.169,73.200 148.705,73.200 155.098 C 73.200 167.315,84.937 183.820,98.473 190.637 C 119.182 201.066,152.244 200.443,174.444 189.205 C 178.024 187.393,179.245 187.454,180.544 189.511 C 182.929 193.290,182.449 194.465,177.523 196.900 C 167.907 201.654,154.519 205.050,141.582 206.016 C 133.773 206.600,133.013 206.925,132.320 209.985 C 131.518 213.529,131.636 242.985,132.492 252.800 C 134.521 276.086,135.383 299.424,134.293 301.578 C 134.021 302.115,132.449 303.495,130.799 304.644 C 122.435 310.469,120.895 314.579,125.594 318.533 C 130.897 322.995,133.983 321.798,142.306 312.049 L 146.533 307.098 146.453 303.679 C 146.409 301.799,146.201 296.827,145.990 292.630 C 145.379 280.466,145.053 266.639,145.349 265.460 C 146.023 262.773,149.649 262.066,151.735 264.214 C 153.421 265.950,153.339 265.200,154.401 288.605 C 154.831 298.068,155.294 306.371,155.431 307.056 C 155.765 308.726,155.100 309.831,153.169 310.816 C 143.718 315.637,146.446 327.254,156.699 325.848 C 160.527 325.324,164.981 321.270,167.453 316.062 L 168.895 313.022 168.444 305.211 C 168.196 300.915,167.994 292.051,167.996 285.514 L 168.000 273.628 169.241 272.214 C 172.304 268.725,175.334 270.678,175.774 276.424 C 176.526 286.229,181.489 294.081,190.946 300.426 C 194.715 302.955,196.871 301.700,195.917 297.533 C 195.057 293.776,195.257 285.453,196.287 282.182 C 198.975 273.638,208.611 267.193,213.853 270.433 C 216.593 272.126,216.157 273.977,212.689 275.383 C 205.331 278.365,202.363 283.622,203.234 292.134 C 203.994 299.560,205.648 302.211,211.285 305.043 C 215.003 306.910,215.444 307.373,215.039 308.986 C 214.595 310.758,212.670 310.998,203.494 310.426 C 199.042 310.149,192.405 309.894,188.743 309.861 L 182.087 309.800 180.569 311.023 C 174.957 315.547,176.429 321.468,183.765 323.875 C 186.370 324.731,206.556 325.103,213.600 324.426 C 245.083 321.399,261.033 305.136,256.067 281.125 C 253.108 266.818,245.702 257.783,221.371 238.800 C 203.591 224.927,194.641 210.614,192.168 192.099 C 191.371 186.131,191.405 185.985,194.398 182.403 C 197.077 179.195,197.093 179.123,196.118 174.344 C 193.781 162.893,196.226 149.716,203.218 136.083 C 206.997 128.714,206.160 126.284,195.936 114.924 C 193.231 111.919,193.413 110.980,197.246 108.166 C 200.509 105.771,200.940 105.979,205.610 112.200 C 211.583 120.158,211.421 120.000,213.633 120.000 C 215.369 120.000,215.751 119.824,217.326 118.300 C 219.486 116.210,227.181 111.012,231.100 108.994 C 232.695 108.173,234.000 107.259,234.000 106.964 C 234.000 106.669,234.291 105.817,234.646 105.072 C 235.899 102.444,232.926 87.615,230.221 82.999 C 225.840 75.524,216.560 78.818,198.600 94.223 C 193.383 98.698,193.999 98.618,189.000 95.481 C 172.993 85.436,154.950 83.162,134.658 88.631 C 131.830 89.393,129.187 90.193,128.785 90.408 C 127.185 91.264,125.923 90.847,123.616 88.700 C 116.430 82.013,109.712 76.763,106.551 75.363 C 104.739 74.560,103.663 74.284,100.600 73.837 C 100.160 73.773,99.080 73.839,98.200 73.985 M136.326 122.029 C 139.360 123.372,141.293 126.975,140.348 129.529 C 139.881 130.792,137.714 130.751,137.227 129.470 C 136.086 126.471,131.111 127.001,129.746 130.267 C 129.067 131.893,126.380 132.257,125.614 130.826 C 122.709 125.398,130.142 119.293,136.326 122.029 M168.373 133.586 C 171.767 135.318,174.110 139.719,173.301 142.842 C 172.556 145.719,169.180 145.299,168.136 142.200 C 167.040 138.948,164.241 137.914,161.096 139.600 C 156.179 142.235,153.811 137.360,158.577 134.414 C 161.307 132.727,165.924 132.337,168.373 133.586 M127.135 136.042 C 137.285 137.782,140.909 142.262,137.726 149.134 C 136.761 151.218,132.219 155.552,129.273 157.200 C 121.690 161.443,121.284 162.499,125.202 167.802 C 132.107 177.150,143.521 175.487,150.838 164.068 C 154.941 157.664,156.377 156.741,158.670 159.034 C 160.120 160.483,159.777 162.964,157.528 167.303 C 150.248 181.348,131.397 185.033,121.000 174.444 C 116.892 170.261,115.786 166.720,117.829 164.292 C 118.545 163.442,118.779 162.814,118.597 162.234 C 118.452 161.775,118.293 161.040,118.242 160.600 C 118.188 160.130,117.350 159.305,116.211 158.600 C 108.666 153.930,105.311 146.086,107.639 138.559 C 108.804 134.795,115.112 133.980,127.135 136.042 M284.297 256.262 C 284.189 256.448,283.522 258.395,282.814 260.589 C 279.241 271.664,273.006 280.172,266.185 283.280 C 265.226 283.717,265.200 283.844,265.188 288.164 C 265.177 292.144,264.703 297.535,264.220 299.183 C 264.107 299.570,264.639 300.216,265.647 300.916 L 267.255 302.031 268.727 301.141 C 278.325 295.340,285.528 286.958,288.475 278.161 C 290.568 271.914,289.427 257.122,286.800 256.445 C 285.071 256.000,284.476 255.956,284.297 256.262 " stroke="none" fill="#ecaa32" fill-rule="evenodd"></path><path id="path1" d="M96.400 66.143 C 86.417 67.936,81.162 77.207,78.799 97.200 C 76.542 116.293,76.610 119.174,79.416 123.223 C 83.077 128.505,89.665 127.919,99.392 121.444 C 102.636 119.285,103.107 119.555,102.110 123.000 C 100.510 128.529,96.552 132.000,89.600 133.969 C 76.370 137.716,70.433 141.171,67.626 146.760 C 60.115 161.710,74.517 187.613,96.200 198.153 C 102.765 201.344,112.656 204.204,121.571 205.487 L 123.741 205.800 123.640 221.427 C 123.547 235.797,123.757 241.766,124.823 255.000 C 125.934 268.793,127.199 289.161,127.199 293.263 L 127.200 297.926 122.853 301.969 C 116.138 308.213,114.199 313.128,116.227 318.766 C 118.882 326.151,130.040 330.235,138.400 326.883 C 141.234 325.746,140.902 325.656,143.277 328.207 C 149.744 335.156,161.651 334.774,168.874 327.386 C 171.458 324.743,171.198 324.752,173.892 327.215 C 178.869 331.763,187.568 332.927,209.738 332.011 C 231.804 331.099,243.340 326.881,255.196 315.388 C 259.570 311.147,260.045 310.800,261.472 310.800 C 277.126 310.800,296.671 289.244,297.479 271.087 C 297.823 263.350,298.184 263.702,303.450 276.922 C 307.443 286.944,308.453 288.895,311.068 291.637 C 319.230 300.194,333.017 294.889,332.992 283.201 L 332.983 279.384 325.525 264.392 C 321.423 256.147,316.097 245.440,313.690 240.600 C 307.481 228.117,304.098 221.739,302.332 219.183 C 300.348 216.311,300.386 216.018,302.977 214.233 C 312.120 207.937,322.012 193.042,324.924 181.186 C 331.756 153.377,321.413 125.862,298.268 110.276 C 285.445 101.641,267.692 98.341,251.400 101.564 C 244.536 102.922,244.034 102.974,243.849 102.343 C 243.761 102.044,243.475 100.270,243.212 98.400 C 240.785 81.090,235.912 73.010,226.978 71.479 C 220.163 70.312,212.639 73.867,197.115 85.586 C 192.710 88.912,193.308 88.834,189.145 86.624 C 172.983 78.040,154.710 75.995,135.600 80.629 C 128.347 82.388,129.484 82.647,123.907 77.970 C 115.082 70.570,109.063 67.192,102.627 66.029 C 99.865 65.530,99.813 65.531,96.400 66.143 M102.951 74.205 C 107.234 74.897,113.525 79.310,123.616 88.700 C 125.923 90.847,127.185 91.264,128.785 90.408 C 129.187 90.193,131.830 89.393,134.658 88.631 C 154.950 83.162,172.993 85.436,189.000 95.481 C 193.999 98.618,193.383 98.698,198.600 94.223 C 210.289 84.196,216.249 80.411,221.600 79.615 C 228.983 78.516,231.664 82.048,234.020 95.976 C 235.849 106.789,235.923 106.427,231.399 108.814 C 226.423 111.439,219.333 116.345,216.503 119.121 C 214.284 121.299,213.842 121.573,213.267 121.136 C 211.753 119.987,209.454 117.323,205.984 112.698 C 200.898 105.918,200.553 105.739,197.246 108.166 C 193.413 110.980,193.231 111.919,195.936 114.924 C 198.227 117.469,203.146 123.857,204.098 125.522 C 204.562 126.335,205.405 127.389,205.971 127.864 L 207.000 128.727 203.744 135.064 C 196.205 149.736,193.714 162.566,196.118 174.344 C 197.093 179.123,197.077 179.195,194.398 182.403 C 191.405 185.985,191.371 186.131,192.168 192.099 C 194.641 210.614,203.591 224.927,221.371 238.800 C 245.702 257.783,253.108 266.818,256.067 281.125 C 261.033 305.136,245.083 321.399,213.600 324.426 C 206.556 325.103,186.370 324.731,183.765 323.875 C 176.429 321.468,174.957 315.547,180.569 311.023 L 182.087 309.800 188.743 309.861 C 192.405 309.894,199.042 310.149,203.494 310.426 C 212.670 310.998,214.595 310.758,215.039 308.986 C 215.444 307.373,215.003 306.910,211.285 305.043 C 205.648 302.211,203.994 299.560,203.234 292.134 C 202.363 283.622,205.331 278.365,212.689 275.383 C 219.040 272.809,214.219 268.117,207.501 270.334 C 197.724 273.559,192.977 285.367,196.170 298.516 C 197.265 303.025,195.658 303.589,190.871 300.376 C 181.492 294.082,176.524 286.199,175.774 276.424 C 175.334 270.678,172.304 268.725,169.241 272.214 L 168.000 273.628 167.996 285.514 C 167.994 292.051,168.196 300.915,168.444 305.211 L 168.895 313.022 167.453 316.062 C 164.981 321.270,160.527 325.324,156.699 325.848 C 146.446 327.254,143.718 315.637,153.169 310.816 C 155.100 309.831,155.765 308.726,155.431 307.056 C 155.294 306.371,154.831 298.068,154.401 288.605 C 153.339 265.200,153.421 265.950,151.735 264.214 C 149.649 262.066,146.023 262.773,145.349 265.460 C 145.053 266.639,145.379 280.466,145.990 292.630 C 146.201 296.827,146.409 301.799,146.453 303.679 L 146.533 307.098 142.306 312.049 C 133.983 321.798,130.897 322.995,125.594 318.533 C 120.895 314.579,122.435 310.469,130.799 304.644 C 132.449 303.495,134.021 302.115,134.293 301.578 C 135.383 299.424,134.521 276.086,132.492 252.800 C 131.636 242.985,131.518 213.521,132.320 210.000 C 133.099 206.580,132.730 206.755,140.457 206.143 C 154.656 205.020,167.659 201.777,177.523 196.900 C 182.449 194.465,182.929 193.290,180.544 189.511 C 179.245 187.454,178.024 187.393,174.444 189.205 C 152.244 200.443,119.182 201.066,98.473 190.637 C 84.937 183.820,73.200 167.315,73.200 155.098 C 73.200 148.705,76.312 146.169,89.028 142.200 C 95.117 140.299,97.167 139.372,101.095 136.742 C 106.958 132.817,107.812 131.250,109.997 120.418 C 110.793 116.468,111.687 113.290,112.472 111.618 C 116.541 102.944,116.568 102.215,112.834 101.714 C 111.265 101.503,111.183 101.556,108.318 104.644 C 102.418 111.003,97.587 114.892,92.178 117.634 C 84.300 121.629,83.510 118.091,87.039 94.630 C 89.363 79.182,93.523 72.804,100.600 73.837 C 101.040 73.901,102.098 74.067,102.951 74.205 M273.783 108.238 C 316.031 114.945,334.563 166.446,307.163 201.000 C 280.367 234.791,227.794 227.752,207.836 187.700 C 199.572 171.117,201.476 150.495,212.813 133.800 C 225.021 115.821,251.533 104.706,273.783 108.238 M257.600 117.438 C 228.991 120.774,207.380 149.493,214.020 175.351 C 221.490 204.441,247.896 218.924,277.800 210.333 C 299.864 203.994,314.421 178.598,309.518 155.000 C 304.321 129.987,282.898 114.488,257.600 117.438 M130.354 121.752 C 126.883 122.992,125.200 125.168,125.200 128.413 C 125.200 132.186,128.470 133.166,129.944 129.834 C 131.439 126.453,135.993 126.226,137.227 129.470 C 137.714 130.751,139.881 130.792,140.348 129.529 C 142.107 124.773,135.748 119.824,130.354 121.752 M269.738 122.200 C 291.034 124.992,305.222 141.731,305.339 164.200 C 305.547 204.326,257.957 223.134,229.400 194.212 C 205.886 170.397,221.484 127.761,255.600 122.592 C 263.105 121.455,263.888 121.433,269.738 122.200 M161.436 133.247 C 158.338 133.974,156.000 136.086,156.000 138.157 C 156.000 140.371,158.393 141.048,161.096 139.600 C 164.241 137.914,167.040 138.948,168.136 142.200 C 169.798 147.132,174.431 144.731,173.195 139.578 C 171.976 134.498,167.160 131.905,161.436 133.247 M112.068 135.207 C 103.525 136.463,105.863 152.463,115.400 158.011 C 116.500 158.650,117.917 159.594,118.548 160.108 L 119.697 161.042 118.878 162.648 C 118.427 163.531,117.775 164.489,117.429 164.776 C 116.419 165.614,116.643 168.316,117.903 170.504 C 123.493 180.206,136.562 183.395,147.361 177.690 C 155.099 173.603,161.945 162.308,158.670 159.034 C 156.377 156.741,154.941 157.664,150.838 164.068 C 143.521 175.487,132.107 177.150,125.202 167.802 C 121.284 162.499,121.690 161.443,129.273 157.200 C 138.006 152.314,141.528 143.485,136.324 139.523 C 132.117 136.321,119.622 134.097,112.068 135.207 M204.601 197.412 C 213.758 210.699,224.034 219.208,237.000 224.240 C 249.129 228.947,264.484 230.504,276.400 228.234 C 283.085 226.961,282.646 226.947,283.449 228.460 C 284.395 230.241,286.800 235.714,286.800 236.085 C 286.800 236.246,287.591 238.048,288.558 240.090 C 291.532 246.369,291.075 247.387,287.401 242.670 C 281.978 235.708,277.486 235.158,278.274 241.555 C 279.422 250.869,277.129 259.802,271.384 268.400 C 269.125 271.780,265.035 276.145,264.342 275.915 C 263.737 275.715,263.656 275.566,260.818 269.448 C 256.011 259.085,248.797 251.060,232.601 238.062 C 213.981 223.117,204.894 212.088,200.931 199.618 C 198.166 190.918,199.551 190.086,204.601 197.412 M286.801 254.802 C 290.722 262.488,290.544 274.991,286.395 283.209 C 282.904 290.126,274.564 298.166,266.660 302.235 C 262.981 304.129,262.917 304.074,263.990 299.930 C 264.617 297.505,264.915 294.844,265.084 290.138 C 265.309 283.874,265.344 283.663,266.243 283.253 C 271.274 280.961,277.141 274.253,280.397 267.071 C 281.890 263.778,284.400 256.029,284.400 254.715 C 284.400 251.982,285.381 252.018,286.801 254.802 M178.849 300.021 C 182.219 303.391,182.191 303.830,178.581 304.217 C 175.332 304.565,175.302 304.530,175.284 300.355 C 175.267 296.511,175.332 296.505,178.849 300.021 " stroke="none" fill="#18293d" fill-rule="evenodd"></path><path id="path2" d="M0.025 93.500 C 0.039 144.925,0.193 186.640,0.367 186.200 C 0.542 185.760,0.804 183.690,0.951 181.600 C 1.351 175.878,3.386 162.070,4.428 158.000 C 4.625 157.230,5.252 154.620,5.822 152.200 C 6.846 147.851,7.057 147.073,8.804 141.200 C 15.284 119.417,29.698 91.727,42.405 76.654 C 42.801 76.184,44.983 73.550,47.253 70.800 C 54.260 62.312,64.731 52.204,76.608 42.463 C 92.819 29.166,118.084 15.903,140.200 9.079 C 144.456 7.766,155.196 4.969,158.200 4.391 C 159.520 4.137,161.410 3.770,162.400 3.575 C 167.570 2.557,175.782 1.441,181.600 0.966 C 183.470 0.814,185.360 0.545,185.800 0.370 C 186.240 0.194,144.615 0.039,93.300 0.025 L 0.000 0.000 0.025 93.500 M212.200 0.367 C 212.640 0.541,214.890 0.803,217.200 0.948 C 228.850 1.682,242.295 4.255,257.400 8.642 C 263.004 10.270,269.827 12.679,273.878 14.462 C 274.801 14.868,275.651 15.200,275.766 15.200 C 276.042 15.200,283.082 18.406,289.000 21.227 C 298.586 25.796,313.698 35.422,323.277 43.060 C 329.755 48.226,342.800 60.121,342.800 60.863 C 342.800 61.048,278.855 61.203,200.700 61.206 C 122.545 61.209,58.375 61.355,58.099 61.530 C 57.700 61.784,57.619 89.667,57.699 199.624 L 57.800 337.400 200.300 337.501 L 342.800 337.601 342.800 199.601 C 342.800 123.700,342.935 61.603,343.100 61.606 C 343.668 61.618,344.279 62.211,348.040 66.400 C 363.101 83.177,376.099 103.789,383.983 123.400 C 387.813 132.929,388.563 135.073,390.928 143.263 C 392.516 148.758,393.156 151.203,394.423 156.600 C 395.896 162.872,397.404 172.796,398.391 182.714 C 398.919 188.027,398.921 211.311,398.393 216.332 C 397.359 226.174,396.606 231.576,395.374 238.000 C 393.450 248.037,388.727 264.399,385.619 271.800 C 385.434 272.240,384.884 273.590,384.396 274.800 C 383.547 276.909,382.660 278.984,381.320 282.000 C 373.512 299.573,359.066 321.187,345.868 335.045 C 341.126 340.024,341.236 339.915,336.353 344.606 C 332.928 347.896,331.260 349.415,327.723 352.463 C 313.187 364.990,287.760 379.941,270.343 386.201 C 237.423 398.033,203.524 401.751,171.600 397.029 C 169.290 396.687,166.230 396.233,164.800 396.020 C 153.166 394.282,132.756 388.286,122.690 383.649 C 121.199 382.962,119.883 382.400,119.764 382.400 C 119.050 382.400,108.928 377.425,103.600 374.456 C 93.220 368.671,75.913 357.025,73.200 353.999 C 73.090 353.877,71.298 352.343,69.218 350.591 C 61.582 344.161,50.441 332.518,43.007 323.200 C 27.619 303.912,13.837 277.216,8.005 255.400 C 4.999 244.157,3.427 236.967,2.408 229.800 C 2.157 228.040,1.792 225.520,1.595 224.200 C 1.398 222.880,1.116 220.000,0.968 217.800 C 0.820 215.600,0.547 213.530,0.361 213.200 C 0.176 212.870,0.019 254.765,0.012 306.300 L 0.000 400.000 200.000 400.000 L 400.000 400.000 400.000 200.000 L 400.000 0.000 305.700 0.025 C 253.835 0.039,211.760 0.193,212.200 0.367 M105.574 65.445 C 110.832 66.737,116.596 70.335,125.600 77.948 C 129.332 81.104,128.856 80.995,133.800 79.818 C 146.551 76.782,164.127 76.091,170.168 78.388 C 170.764 78.614,171.670 78.800,172.181 78.800 C 173.152 78.800,178.894 80.553,180.095 81.216 C 180.477 81.427,180.988 81.600,181.231 81.600 C 181.835 81.600,191.567 86.423,191.834 86.854 C 192.312 87.629,194.570 86.256,201.000 81.285 C 217.407 68.599,228.779 66.724,236.264 75.471 C 238.050 77.559,240.656 82.073,241.303 84.200 C 242.852 89.295,242.938 89.685,244.163 97.170 C 244.918 101.783,244.822 101.687,248.003 101.025 C 254.896 99.590,256.473 99.441,264.600 99.456 C 280.845 99.486,294.218 104.259,304.744 113.784 C 310.035 118.571,314.000 122.934,316.638 126.872 C 317.717 128.482,318.695 129.890,318.812 130.000 C 319.140 130.310,322.719 137.769,323.661 140.109 C 325.245 144.040,326.506 148.415,327.261 152.600 C 327.864 155.945,328.156 171.737,327.660 174.200 C 325.655 184.155,325.195 185.621,322.125 191.800 C 319.002 198.090,318.422 199.114,316.323 202.052 C 314.015 205.282,307.689 211.972,304.651 214.396 C 302.316 216.259,302.013 216.899,302.959 217.969 C 303.650 218.750,305.432 221.767,306.208 223.473 C 306.527 224.173,306.971 224.858,307.194 224.996 C 307.417 225.134,307.600 225.582,307.600 225.990 C 307.600 226.399,307.746 226.793,307.925 226.867 C 308.104 226.940,311.501 233.570,315.474 241.600 C 325.409 261.680,328.240 267.374,329.795 270.400 C 336.575 283.592,335.569 290.880,326.331 295.520 C 316.683 300.366,308.711 294.788,303.005 279.200 C 302.401 277.550,301.478 275.266,300.953 274.125 C 300.429 272.983,300.000 271.788,300.000 271.468 C 300.000 269.273,298.881 270.766,298.648 273.272 C 298.505 274.814,298.210 276.407,297.994 276.812 C 297.777 277.216,297.600 278.063,297.600 278.694 C 297.600 279.324,297.450 280.011,297.266 280.220 C 297.082 280.429,296.608 281.500,296.213 282.600 C 291.218 296.484,276.512 309.374,262.993 311.720 L 259.785 312.276 257.193 315.004 C 250.783 321.749,241.980 327.140,232.800 329.942 C 224.511 332.472,220.494 332.897,202.933 333.101 C 181.800 333.346,178.360 332.763,173.111 328.044 C 171.311 326.426,171.076 326.320,170.715 326.966 C 166.892 333.797,151.076 336.643,145.149 331.566 C 142.960 329.691,141.200 327.908,141.200 327.566 C 141.200 327.088,139.715 327.090,139.419 327.569 C 139.294 327.772,137.943 328.222,136.417 328.569 C 121.916 331.867,110.549 320.770,115.838 308.480 C 116.661 306.568,119.495 303.420,124.357 299.016 L 126.106 297.433 125.845 289.616 C 125.496 279.165,124.963 270.037,124.222 261.800 C 122.929 247.448,122.600 239.681,122.600 223.546 L 122.600 206.892 119.800 206.415 C 118.260 206.152,116.010 205.699,114.800 205.407 C 113.590 205.116,111.610 204.655,110.400 204.383 C 98.458 201.697,88.109 196.125,80.020 188.026 C 77.259 185.262,74.644 182.325,74.209 181.500 C 73.774 180.675,73.279 180.000,73.109 180.000 C 72.939 180.000,72.800 179.745,72.800 179.433 C 72.800 179.122,72.665 178.807,72.500 178.733 C 71.544 178.308,66.516 167.868,65.404 164.000 C 62.636 154.372,65.213 145.118,72.123 139.871 C 73.918 138.509,78.785 136.000,79.633 136.000 C 79.841 136.000,80.323 135.831,80.705 135.625 C 81.087 135.419,84.254 134.343,87.741 133.236 C 96.333 130.507,98.556 128.962,100.241 124.548 C 101.121 122.243,100.837 122.065,98.520 123.473 C 96.061 124.966,92.144 126.800,91.413 126.800 C 91.102 126.800,90.749 126.959,90.629 127.153 C 90.509 127.348,89.403 127.632,88.172 127.786 C 77.279 129.147,73.999 120.142,77.397 98.200 C 77.533 97.320,77.922 94.800,78.260 92.600 C 80.354 78.977,83.557 72.019,89.800 67.528 C 93.629 64.774,99.621 63.983,105.574 65.445 M274.087 133.843 C 270.826 135.506,269.688 140.306,271.946 142.877 C 276.327 147.867,284.270 146.364,285.038 140.400 C 285.650 135.654,278.699 131.492,274.087 133.843 M258.552 148.172 C 253.398 151.335,256.374 159.623,262.318 158.658 C 265.399 158.158,267.882 153.607,266.664 150.692 C 265.370 147.595,261.468 146.383,258.552 148.172 M289.143 149.780 C 286.178 151.795,286.347 156.950,289.419 158.234 C 294.547 160.376,298.548 156.968,296.562 152.149 C 295.107 148.619,292.213 147.695,289.143 149.780 M272.947 159.967 C 271.084 161.103,270.400 162.323,270.400 164.509 C 270.400 170.101,275.516 172.155,279.332 168.094 C 283.369 163.798,277.958 156.912,272.947 159.967 M243.730 174.955 C 238.446 176.673,235.793 180.307,235.814 185.800 C 235.862 198.593,253.734 202.030,257.420 189.956 C 260.254 180.673,252.449 172.121,243.730 174.955 M201.600 196.953 C 201.600 198.113,203.446 203.431,204.252 204.589 C 204.553 205.023,204.800 205.586,204.800 205.841 C 204.800 206.680,208.936 213.273,211.000 215.725 C 211.220 215.986,212.422 217.460,213.671 219.000 C 216.697 222.731,224.275 230.069,228.000 232.876 C 229.650 234.119,231.360 235.468,231.800 235.874 C 232.240 236.280,233.590 237.318,234.800 238.181 C 238.993 241.173,250.075 251.629,253.260 255.600 C 254.055 256.590,255.263 258.030,255.946 258.800 C 256.629 259.570,257.190 260.329,257.194 260.488 C 257.197 260.646,257.987 261.996,258.948 263.488 C 261.069 266.778,264.000 272.692,264.000 273.681 C 264.000 275.370,265.285 274.411,268.396 270.400 C 269.164 269.410,270.077 268.286,270.425 267.902 C 271.014 267.250,273.116 263.209,274.534 260.000 C 277.120 254.149,278.400 243.371,276.852 240.492 C 275.300 237.607,282.266 234.029,284.409 236.611 C 285.713 238.182,285.986 236.717,284.800 234.504 C 284.360 233.684,284.000 232.789,284.000 232.517 C 284.000 232.244,283.565 231.252,283.034 230.311 C 281.920 228.339,281.735 228.312,276.600 229.374 C 268.594 231.028,254.351 230.555,246.000 228.357 C 236.612 225.886,223.894 219.782,219.690 215.729 C 219.410 215.458,218.330 214.564,217.290 213.740 C 214.839 211.798,210.496 207.437,208.986 205.400 C 208.334 204.520,207.586 203.573,207.325 203.297 C 207.064 203.020,205.840 201.360,204.606 199.608 C 202.025 195.946,201.600 195.570,201.600 196.953 M176.580 300.509 C 176.231 301.418,177.096 302.800,178.014 302.800 C 179.090 302.800,179.000 301.928,177.810 300.810 C 176.969 300.019,176.785 299.974,176.580 300.509 " stroke="none" fill="#f3efea" fill-rule="evenodd"></path><path id="path3" d="M152.118 78.298 C 153.833 78.373,156.533 78.372,158.118 78.297 C 159.703 78.221,158.300 78.159,155.000 78.160 C 151.700 78.161,150.403 78.222,152.118 78.298 M262.912 100.295 C 263.964 100.377,265.584 100.376,266.512 100.292 C 267.440 100.208,266.580 100.141,264.600 100.142 C 262.620 100.143,261.860 100.212,262.912 100.295 M254.200 108.408 C 223.319 114.494,202.847 137.455,202.807 166.048 C 202.753 204.904,248.237 234.042,284.400 218.319 C 312.574 206.069,326.972 173.982,317.146 145.341 C 308.114 119.014,281.029 103.121,254.200 108.408 M76.924 115.000 C 76.926 116.320,77.001 116.812,77.090 116.093 C 77.179 115.374,77.177 114.294,77.086 113.693 C 76.995 113.092,76.922 113.680,76.924 115.000 M275.603 118.546 C 297.459 124.289,310.274 141.822,310.141 165.800 C 309.956 198.795,277.804 220.798,245.034 210.354 C 230.205 205.628,218.363 192.262,214.020 175.351 C 205.574 142.461,241.279 109.527,275.603 118.546 M260.600 121.868 C 237.750 124.692,221.971 138.934,218.589 159.791 C 212.828 195.307,253.225 220.422,285.600 201.453 C 313.003 185.397,311.827 141.322,283.600 126.472 C 276.811 122.900,267.436 121.023,260.600 121.868 M275.368 123.767 C 313.932 134.124,315.229 191.537,277.200 204.867 C 254.193 212.931,228.094 201.311,220.756 179.737 C 212.456 155.334,229.403 127.379,255.000 123.247 C 256.540 122.999,258.250 122.720,258.800 122.629 C 262.056 122.086,271.533 122.737,275.368 123.767 M65.309 156.000 C 65.309 156.990,65.387 157.395,65.482 156.900 C 65.578 156.405,65.578 155.595,65.482 155.100 C 65.387 154.605,65.309 155.010,65.309 156.000 M326.920 160.400 C 326.920 161.610,326.995 162.105,327.087 161.500 C 327.178 160.895,327.178 159.905,327.087 159.300 C 326.995 158.695,326.920 159.190,326.920 160.400 M326.901 169.000 C 326.905 169.880,326.987 170.193,327.083 169.695 C 327.179 169.198,327.175 168.478,327.075 168.095 C 326.975 167.713,326.896 168.120,326.901 169.000 M76.800 183.325 C 76.800 183.394,77.385 183.979,78.100 184.625 L 79.400 185.800 78.225 184.500 C 77.130 183.288,76.800 183.016,76.800 183.325 M80.000 186.525 C 80.000 186.594,80.585 187.179,81.300 187.825 L 82.600 189.000 81.425 187.700 C 80.330 186.488,80.000 186.216,80.000 186.525 M82.800 189.325 C 82.800 189.394,83.385 189.979,84.100 190.625 L 85.400 191.800 84.225 190.500 C 83.130 189.288,82.800 189.016,82.800 189.325 M123.065 206.035 C 123.320 206.346,123.615 207.140,123.720 207.800 C 123.864 208.706,123.897 208.616,123.855 207.431 C 123.820 206.427,123.584 205.791,123.200 205.666 C 122.725 205.511,122.697 205.588,123.065 206.035 M212.000 207.400 C 212.746 208.170,213.447 208.800,213.557 208.800 C 213.667 208.800,213.146 208.170,212.400 207.400 C 211.654 206.630,210.953 206.000,210.843 206.000 C 210.733 206.000,211.254 206.630,212.000 207.400 M308.786 209.100 L 306.600 211.400 308.900 209.214 C 311.037 207.182,311.383 206.800,311.086 206.800 C 311.024 206.800,309.989 207.835,308.786 209.100 M123.371 222.000 C 123.371 226.950,123.428 228.975,123.499 226.500 C 123.569 224.025,123.569 219.975,123.499 217.500 C 123.428 215.025,123.371 217.050,123.371 222.000 M214.800 222.200 C 215.546 222.970,216.247 223.600,216.357 223.600 C 216.467 223.600,215.946 222.970,215.200 222.200 C 214.454 221.430,213.753 220.800,213.643 220.800 C 213.533 220.800,214.054 221.430,214.800 222.200 M306.800 227.200 C 307.249 228.080,307.706 228.800,307.816 228.800 C 307.926 228.800,307.649 228.080,307.200 227.200 C 306.751 226.320,306.294 225.600,306.184 225.600 C 306.074 225.600,306.351 226.320,306.800 227.200 M261.500 229.493 C 262.435 229.577,263.965 229.577,264.900 229.493 C 265.835 229.409,265.070 229.340,263.200 229.340 C 261.330 229.340,260.565 229.409,261.500 229.493 M123.693 241.600 C 123.693 242.370,123.775 242.685,123.876 242.300 C 123.976 241.915,123.976 241.285,123.876 240.900 C 123.775 240.515,123.693 240.830,123.693 241.600 M290.000 244.429 C 290.000 245.182,289.943 245.200,289.371 244.629 C 288.343 243.600,288.182 243.916,289.188 244.988 C 290.283 246.153,290.768 246.013,290.500 244.610 C 290.266 243.388,290.000 243.291,290.000 244.429 M278.531 247.000 C 278.533 248.540,278.605 249.121,278.692 248.291 C 278.779 247.461,278.777 246.201,278.689 245.491 C 278.600 244.781,278.529 245.460,278.531 247.000 M124.101 247.400 C 124.105 248.280,124.187 248.593,124.283 248.095 C 124.379 247.598,124.375 246.878,124.275 246.495 C 124.175 246.113,124.096 246.520,124.101 247.400 M245.600 248.925 C 245.600 248.994,246.185 249.579,246.900 250.225 L 248.200 251.400 247.025 250.100 C 245.930 248.888,245.600 248.616,245.600 248.925 M124.493 254.000 C 124.493 254.770,124.575 255.085,124.676 254.700 C 124.776 254.315,124.776 253.685,124.676 253.300 C 124.575 252.915,124.493 253.230,124.493 254.000 M249.600 253.325 C 249.600 253.394,250.185 253.979,250.900 254.625 L 252.200 255.800 251.025 254.500 C 249.930 253.288,249.600 253.016,249.600 253.325 M125.301 263.400 C 125.305 264.280,125.387 264.593,125.483 264.095 C 125.579 263.598,125.575 262.878,125.475 262.495 C 125.375 262.113,125.296 262.520,125.301 263.400 M297.672 268.100 C 297.737 270.362,297.758 270.419,297.894 268.700 C 298.050 266.716,298.477 266.314,299.168 267.500 C 299.392 267.885,299.581 268.015,299.588 267.789 C 299.605 267.203,298.426 265.600,297.977 265.600 C 297.770 265.600,297.632 266.725,297.672 268.100 M125.701 269.400 C 125.705 270.280,125.787 270.593,125.883 270.095 C 125.979 269.598,125.975 268.878,125.875 268.495 C 125.775 268.113,125.696 268.520,125.701 269.400 M266.175 274.500 L 265.000 275.800 266.300 274.625 C 267.015 273.979,267.600 273.394,267.600 273.325 C 267.600 273.016,267.270 273.288,266.175 274.500 M126.509 281.600 C 126.509 282.590,126.587 282.995,126.682 282.500 C 126.778 282.005,126.778 281.195,126.682 280.700 C 126.587 280.205,126.509 280.610,126.509 281.600 M126.931 288.600 C 126.933 290.140,127.005 290.721,127.092 289.891 C 127.179 289.061,127.177 287.801,127.089 287.091 C 127.000 286.381,126.929 287.060,126.931 288.600 M310.783 291.700 C 311.764 292.745,312.619 293.600,312.683 293.600 C 312.984 293.600,312.666 293.241,310.900 291.583 L 309.000 289.800 310.783 291.700 M123.375 301.300 L 122.200 302.600 123.500 301.425 C 124.712 300.330,124.984 300.000,124.675 300.000 C 124.606 300.000,124.021 300.585,123.375 301.300 M119.775 304.500 L 118.600 305.800 119.900 304.625 C 121.112 303.530,121.384 303.200,121.075 303.200 C 121.006 303.200,120.421 303.785,119.775 304.500 M254.788 315.900 L 252.200 318.600 254.900 316.012 C 257.408 313.607,257.783 313.200,257.488 313.200 C 257.427 313.200,256.212 314.415,254.788 315.900 M164.700 330.629 C 163.205 331.440,163.296 331.778,164.800 331.000 C 165.460 330.659,166.000 330.294,166.000 330.190 C 166.000 329.932,165.957 329.947,164.700 330.629 M215.700 331.876 C 216.085 331.976,216.715 331.976,217.100 331.876 C 217.485 331.775,217.170 331.693,216.400 331.693 C 215.630 331.693,215.315 331.775,215.700 331.876 M191.305 332.287 C 191.914 332.379,192.814 332.377,193.305 332.282 C 193.797 332.187,193.300 332.111,192.200 332.114 C 191.100 332.117,190.697 332.195,191.305 332.287 M205.900 332.289 C 206.615 332.378,207.785 332.378,208.500 332.289 C 209.215 332.201,208.630 332.128,207.200 332.128 C 205.770 332.128,205.185 332.201,205.900 332.289 " stroke="none" fill="#249bc8" fill-rule="evenodd"></path><path id="path4" d="M93.600 65.464 C 85.523 68.272,80.684 76.832,78.260 92.600 C 77.922 94.800,77.533 97.320,77.397 98.200 C 74.997 113.697,75.786 121.469,80.199 125.820 C 82.383 127.973,89.556 128.890,90.629 127.153 C 90.749 126.959,91.102 126.800,91.413 126.800 C 92.144 126.800,96.061 124.966,98.520 123.473 C 100.837 122.065,101.121 122.243,100.241 124.548 C 98.556 128.962,96.333 130.507,87.741 133.236 C 84.254 134.343,81.087 135.419,80.705 135.625 C 80.323 135.831,79.841 136.000,79.633 136.000 C 78.785 136.000,73.918 138.509,72.123 139.871 C 65.213 145.118,62.636 154.372,65.404 164.000 C 66.516 167.868,71.544 178.308,72.500 178.733 C 72.665 178.807,72.800 179.122,72.800 179.433 C 72.800 179.745,72.939 180.000,73.109 180.000 C 73.279 180.000,73.774 180.675,74.209 181.500 C 76.766 186.350,87.116 194.868,95.857 199.316 C 99.046 200.939,106.255 203.450,110.400 204.383 C 111.610 204.655,113.590 205.116,114.800 205.407 C 116.010 205.699,118.260 206.152,119.800 206.415 L 122.600 206.892 122.600 223.546 C 122.600 239.681,122.929 247.448,124.222 261.800 C 124.963 270.037,125.496 279.165,125.845 289.616 L 126.106 297.433 124.357 299.016 C 119.495 303.420,116.661 306.568,115.838 308.480 C 110.549 320.770,121.916 331.867,136.417 328.569 C 137.943 328.222,139.294 327.772,139.419 327.569 C 139.715 327.090,141.200 327.088,141.200 327.566 C 141.200 327.908,142.960 329.691,145.149 331.566 C 151.076 336.643,166.892 333.797,170.715 326.966 C 171.076 326.320,171.311 326.426,173.111 328.044 C 178.360 332.763,181.800 333.346,202.933 333.101 C 220.494 332.897,224.511 332.472,232.800 329.942 C 237.930 328.376,247.137 323.752,250.600 321.003 C 254.281 318.080,254.195 318.158,257.193 315.004 L 259.785 312.276 262.993 311.720 C 273.044 309.976,283.077 303.046,291.107 292.300 C 292.936 289.853,295.045 285.845,296.213 282.600 C 296.608 281.500,297.082 280.429,297.266 280.220 C 297.450 280.011,297.600 279.324,297.600 278.694 C 297.600 278.063,297.777 277.216,297.994 276.812 C 298.210 276.407,298.505 274.814,298.648 273.272 C 298.881 270.766,300.000 269.273,300.000 271.468 C 300.000 271.788,300.429 272.983,300.953 274.125 C 301.478 275.266,302.401 277.550,303.005 279.200 C 308.711 294.788,316.683 300.366,326.331 295.520 C 335.569 290.880,336.575 283.592,329.795 270.400 C 328.240 267.374,325.409 261.680,315.474 241.600 C 311.501 233.570,308.104 226.940,307.925 226.867 C 307.746 226.793,307.600 226.399,307.600 225.990 C 307.600 225.582,307.417 225.134,307.194 224.996 C 306.971 224.858,306.527 224.173,306.208 223.473 C 305.432 221.767,303.650 218.750,302.959 217.969 C 302.013 216.899,302.316 216.259,304.651 214.396 C 307.689 211.972,314.015 205.282,316.323 202.052 C 318.422 199.114,319.002 198.090,322.125 191.800 C 325.195 185.621,325.655 184.155,327.660 174.200 C 328.156 171.737,327.864 155.945,327.261 152.600 C 326.506 148.415,325.245 144.040,323.661 140.109 C 322.719 137.769,319.140 130.310,318.812 130.000 C 318.695 129.890,317.717 128.482,316.638 126.872 C 314.424 123.568,312.590 121.418,308.744 117.622 C 295.631 104.677,283.027 99.490,264.600 99.456 C 256.473 99.441,254.896 99.590,248.003 101.025 C 244.822 101.687,244.918 101.783,244.163 97.170 C 242.938 89.685,242.852 89.295,241.303 84.200 C 240.656 82.073,238.050 77.559,236.264 75.471 C 228.779 66.724,217.407 68.599,201.000 81.285 C 194.570 86.256,192.312 87.629,191.834 86.854 C 191.567 86.423,181.835 81.600,181.231 81.600 C 180.988 81.600,180.477 81.427,180.095 81.216 C 178.894 80.553,173.152 78.800,172.181 78.800 C 171.670 78.800,170.764 78.614,170.168 78.388 C 164.127 76.091,146.551 76.782,133.800 79.818 C 128.856 80.995,129.332 81.104,125.600 77.948 C 116.596 70.335,110.832 66.737,105.574 65.445 C 102.194 64.614,96.016 64.624,93.600 65.464 M104.165 66.200 C 109.750 67.383,117.165 71.791,124.600 78.349 C 125.700 79.319,127.258 80.550,128.062 81.084 L 129.525 82.056 132.262 81.249 C 151.543 75.561,171.420 77.267,188.331 86.060 C 193.118 88.549,192.701 88.621,198.466 84.317 C 209.154 76.338,214.519 73.207,219.858 71.833 C 232.553 68.565,240.002 76.648,243.193 97.151 C 244.149 103.297,243.694 102.950,249.302 101.812 C 291.253 93.294,326.926 122.040,326.971 164.400 C 326.981 173.856,326.621 176.394,324.012 185.269 C 321.408 194.121,310.826 208.823,303.024 214.425 C 300.722 216.079,300.736 216.520,303.224 220.313 C 304.337 222.011,311.492 235.910,319.124 251.200 L 333.000 279.000 333.000 283.200 C 333.000 294.866,319.110 300.354,310.934 291.919 C 308.671 289.583,306.953 286.287,303.618 277.880 C 300.603 270.280,298.984 266.800,298.465 266.800 C 298.288 266.800,297.921 269.005,297.648 271.700 C 295.767 290.321,279.291 308.653,262.500 310.808 L 259.600 311.180 255.500 315.325 C 243.529 327.427,230.948 331.661,205.200 332.256 C 183.814 332.750,178.210 331.745,172.901 326.467 C 171.944 325.515,171.424 325.250,171.081 325.540 C 170.816 325.763,169.553 326.963,168.273 328.207 C 161.373 334.914,149.970 335.045,143.297 328.495 L 140.825 326.069 138.112 327.026 C 127.176 330.885,115.600 324.651,115.600 314.901 C 115.600 309.782,117.417 306.468,122.787 301.790 C 124.747 300.082,126.562 298.174,126.820 297.551 C 127.313 296.362,126.642 280.991,125.390 264.800 C 123.651 242.287,123.522 239.558,123.433 223.376 C 123.337 205.755,123.323 205.600,121.806 205.600 C 120.789 205.600,114.736 204.448,110.243 203.399 C 94.100 199.632,78.744 188.725,72.010 176.244 C 71.345 175.010,70.273 173.022,69.628 171.827 C 65.135 163.494,64.171 153.661,67.226 147.334 C 70.199 141.177,74.904 138.138,87.000 134.565 C 96.451 131.773,99.386 129.685,101.365 124.346 C 102.789 120.504,102.428 119.194,100.431 120.958 C 96.077 124.803,86.533 127.933,83.287 126.580 C 76.608 123.798,75.787 118.134,78.824 95.800 C 82.050 72.078,89.705 63.136,104.165 66.200 M234.395 105.613 C 233.864 106.895,234.183 107.788,234.816 106.788 C 235.177 106.217,235.354 104.400,235.049 104.400 C 234.965 104.400,234.671 104.946,234.395 105.613 M212.400 120.392 C 212.400 120.888,214.213 121.363,214.777 121.014 C 215.631 120.486,215.163 120.000,213.800 120.000 C 213.030 120.000,212.400 120.177,212.400 120.392 M258.800 122.629 C 258.250 122.720,256.540 122.999,255.000 123.247 C 229.403 127.379,212.456 155.334,220.756 179.737 C 229.482 205.390,264.340 215.910,287.211 199.792 C 315.951 179.539,308.656 132.707,275.368 123.767 C 271.533 122.737,262.056 122.086,258.800 122.629 M131.144 127.987 C 129.937 128.992,130.255 129.001,132.229 128.016 C 133.411 127.426,133.588 127.228,132.944 127.216 C 132.474 127.207,131.664 127.554,131.144 127.987 M205.613 128.676 C 205.598 130.138,206.209 130.774,206.512 129.614 C 206.624 129.187,206.470 128.514,206.170 128.119 C 205.674 127.464,205.624 127.513,205.613 128.676 M281.885 134.655 C 285.812 137.815,286.202 140.867,283.062 143.866 C 279.695 147.083,275.294 146.691,271.946 142.877 C 267.117 137.378,276.068 129.974,281.885 134.655 M264.809 148.406 C 267.584 150.383,267.617 154.701,264.877 157.326 C 261.592 160.474,256.119 157.981,255.934 153.253 C 255.744 148.408,260.876 145.606,264.809 148.406 M295.092 149.700 C 299.770 154.764,295.715 160.864,289.419 158.234 C 286.347 156.950,286.178 151.795,289.143 149.780 C 291.090 148.457,293.909 148.419,295.092 149.700 M278.210 160.006 C 281.005 161.733,281.558 165.725,279.332 168.094 C 275.516 172.155,270.400 170.101,270.400 164.509 C 270.400 160.327,274.709 157.842,278.210 160.006 M118.229 160.353 C 118.083 160.590,118.173 161.176,118.430 161.656 C 118.862 162.464,118.926 162.476,119.292 161.822 C 119.748 161.006,118.711 159.573,118.229 160.353 M251.800 175.564 C 260.756 179.524,259.893 194.155,250.538 196.964 C 241.407 199.706,232.910 190.143,236.533 181.200 C 238.795 175.615,245.944 172.976,251.800 175.564 M200.293 192.964 C 199.767 193.491,199.759 193.883,200.236 196.083 C 203.127 209.426,212.892 222.287,230.899 236.467 C 249.043 250.755,256.846 259.543,261.993 271.485 C 264.093 276.359,264.302 276.417,267.465 273.000 C 275.726 264.077,280.544 248.790,277.808 240.177 C 277.407 238.915,278.722 237.588,280.628 237.332 C 282.368 237.099,285.066 238.866,286.531 241.200 C 289.175 245.409,291.119 245.786,289.046 241.687 C 288.521 240.649,287.231 237.640,286.180 235.000 C 283.580 228.473,282.660 227.044,281.269 227.366 C 250.109 234.579,222.037 223.429,203.809 196.600 C 202.314 194.400,201.047 192.546,200.993 192.481 C 200.939 192.415,200.624 192.633,200.293 192.964 M204.606 199.608 C 205.840 201.360,207.064 203.020,207.325 203.297 C 207.586 203.573,208.334 204.520,208.986 205.400 C 210.496 207.437,214.839 211.798,217.290 213.740 C 218.330 214.564,219.410 215.458,219.690 215.729 C 223.894 219.782,236.612 225.886,246.000 228.357 C 254.351 230.555,268.594 231.028,276.600 229.374 C 281.735 228.312,281.920 228.339,283.034 230.311 C 283.565 231.252,284.000 232.244,284.000 232.517 C 284.000 232.789,284.360 233.684,284.800 234.504 C 285.986 236.717,285.713 238.182,284.409 236.611 C 282.266 234.029,275.300 237.607,276.852 240.492 C 278.400 243.371,277.120 254.149,274.534 260.000 C 273.116 263.209,271.014 267.250,270.425 267.902 C 270.077 268.286,269.164 269.410,268.396 270.400 C 265.285 274.411,264.000 275.370,264.000 273.681 C 264.000 272.692,261.069 266.778,258.948 263.488 C 257.987 261.996,257.197 260.646,257.194 260.488 C 257.190 260.329,256.629 259.570,255.946 258.800 C 255.263 258.030,254.055 256.590,253.260 255.600 C 250.075 251.629,238.993 241.173,234.800 238.181 C 233.590 237.318,232.240 236.280,231.800 235.874 C 231.360 235.468,229.650 234.119,228.000 232.876 C 224.275 230.069,216.697 222.731,213.671 219.000 C 212.422 217.460,211.220 215.986,211.000 215.725 C 208.936 213.273,204.800 206.680,204.800 205.841 C 204.800 205.586,204.553 205.023,204.252 204.589 C 203.446 203.431,201.600 198.113,201.600 196.953 C 201.600 195.570,202.025 195.946,204.606 199.608 M284.645 253.728 C 284.202 255.380,284.395 255.803,285.795 256.241 C 287.596 256.805,287.727 256.617,286.800 254.800 C 285.863 252.964,284.969 252.519,284.645 253.728 M175.709 297.748 C 175.556 297.994,175.384 299.393,175.325 300.856 C 175.190 304.209,175.564 304.597,178.569 304.221 C 182.096 303.781,182.130 303.253,178.834 300.060 C 177.061 298.343,175.881 297.469,175.709 297.748 M178.800 302.270 C 178.800 303.112,177.273 302.884,176.783 301.969 C 175.986 300.478,176.654 299.724,177.810 300.810 C 178.355 301.321,178.800 301.978,178.800 302.270 M195.462 300.731 C 194.526 301.766,194.632 302.480,195.700 302.328 C 196.344 302.236,196.636 301.888,196.727 301.100 C 196.873 299.826,196.405 299.690,195.462 300.731 M263.588 301.437 C 262.946 303.381,263.475 303.837,265.341 302.947 C 267.103 302.108,267.133 301.892,265.638 300.827 C 264.134 299.756,264.144 299.753,263.588 301.437 " stroke="none" fill="#94c5ce" fill-rule="evenodd"></path></g></svg>